<svg width="81" height="92" viewBox="0 0 81 92" fill="none" xmlns="http://www.w3.org/2000/svg">
<path d="M47.1899 74.1999C43.9899 80.1599 35.54 80.41 31.98 74.66L13.41 44.6299C1.60003 25.5399 14.89 0.809926 37.33 0.129926C59.77 -0.550074 74.54 23.3199 63.91 43.0899L47.1899 74.1899V74.1999Z" fill="white"/>
<path d="M40.29 89.9899C61.4425 89.9899 78.59 84.9888 78.59 78.8198C78.59 72.6508 61.4425 67.6499 40.29 67.6499C19.1375 67.6499 1.98999 72.6508 1.98999 78.8198C1.98999 84.9888 19.1375 89.9899 40.29 89.9899Z" stroke="white" stroke-width="3.02" stroke-miterlimit="10"/>
<path d="M38.21 34.97C42.0649 34.97 45.1899 31.8449 45.1899 27.99C45.1899 24.135 42.0649 21.01 38.21 21.01C34.355 21.01 31.23 24.135 31.23 27.99C31.23 31.8449 34.355 34.97 38.21 34.97Z" fill="black" stroke="#231F20" stroke-width="15.18" stroke-miterlimit="10"/>
</svg>
